<?xml version="1.0" encoding="UTF-8"?>
<!-- Do not edit this file with editors other than draw.io -->
<!DOCTYPE svg PUBLIC "-//W3C//DTD SVG 1.1//EN" "http://www.w3.org/Graphics/SVG/1.1/DTD/svg11.dtd">
<svg xmlns="http://www.w3.org/2000/svg" style="background: transparent; background-color: transparent; color-scheme: light dark;" xmlns:xlink="http://www.w3.org/1999/xlink" version="1.1" width="931px" height="750px" viewBox="-0.5 -0.5 931 750" content="&lt;mxfile host=&quot;Electron&quot; agent=&quot;Mozilla/5.0 (Windows NT 10.0; Win64; x64) AppleWebKit/537.36 (KHTML, like Gecko) draw.io/28.2.5 Chrome/138.0.7204.251 Electron/37.6.1 Safari/537.36&quot; version=&quot;28.2.5&quot; scale=&quot;1&quot; border=&quot;0&quot;&gt;&#10;  &lt;diagram name=&quot;Página-1&quot; id=&quot;pifb6xEqhKs4BekDVM8e&quot;&gt;&#10;    &lt;mxGraphModel dx=&quot;1572&quot; dy=&quot;1032&quot; grid=&quot;1&quot; gridSize=&quot;10&quot; guides=&quot;1&quot; tooltips=&quot;1&quot; connect=&quot;1&quot; arrows=&quot;1&quot; fold=&quot;1&quot; page=&quot;1&quot; pageScale=&quot;1&quot; pageWidth=&quot;1169&quot; pageHeight=&quot;827&quot; math=&quot;0&quot; shadow=&quot;0&quot;&gt;&#10;      &lt;root&gt;&#10;        &lt;mxCell id=&quot;0&quot; /&gt;&#10;        &lt;mxCell id=&quot;1&quot; parent=&quot;0&quot; /&gt;&#10;        &lt;mxCell id=&quot;Qo0mmyYZ15Q514RHZL_5-1&quot; value=&quot;VPC&quot; style=&quot;points=[[0,0],[0.25,0],[0.5,0],[0.75,0],[1,0],[1,0.25],[1,0.5],[1,0.75],[1,1],[0.75,1],[0.5,1],[0.25,1],[0,1],[0,0.75],[0,0.5],[0,0.25]];outlineConnect=0;gradientColor=none;html=1;whiteSpace=wrap;fontSize=12;fontStyle=0;container=1;pointerEvents=0;collapsible=0;recursiveResize=0;shape=mxgraph.aws4.group;grIcon=mxgraph.aws4.group_vpc2;strokeColor=#8C4FFF;fillColor=none;verticalAlign=top;align=left;spacingLeft=30;fontColor=#AAB7B8;dashed=0;&quot; parent=&quot;1&quot; vertex=&quot;1&quot;&gt;&#10;          &lt;mxGeometry x=&quot;120&quot; y=&quot;80&quot; width=&quot;920&quot; height=&quot;680&quot; as=&quot;geometry&quot; /&gt;&#10;        &lt;/mxCell&gt;&#10;        &lt;mxCell id=&quot;Qo0mmyYZ15Q514RHZL_5-9&quot; value=&quot;&quot; style=&quot;outlineConnect=0;dashed=0;verticalLabelPosition=bottom;verticalAlign=top;align=center;html=1;shape=mxgraph.aws3.internet_gateway;fillColor=#F58536;gradientColor=none;&quot; parent=&quot;Qo0mmyYZ15Q514RHZL_5-1&quot; vertex=&quot;1&quot;&gt;&#10;          &lt;mxGeometry x=&quot;410&quot; y=&quot;-30&quot; width=&quot;69&quot; height=&quot;72&quot; as=&quot;geometry&quot; /&gt;&#10;        &lt;/mxCell&gt;&#10;        &lt;mxCell id=&quot;Qo0mmyYZ15Q514RHZL_5-15&quot; value=&quot;VPC 10.0.0.0/16&quot; style=&quot;text;html=1;align=center;verticalAlign=middle;whiteSpace=wrap;rounded=0;fontSize=20;fontColor=default;&quot; parent=&quot;Qo0mmyYZ15Q514RHZL_5-1&quot; vertex=&quot;1&quot;&gt;&#10;          &lt;mxGeometry x=&quot;370&quot; y=&quot;630&quot; width=&quot;190&quot; height=&quot;30&quot; as=&quot;geometry&quot; /&gt;&#10;        &lt;/mxCell&gt;&#10;        &lt;mxCell id=&quot;Qo0mmyYZ15Q514RHZL_5-3&quot; value=&quot;&quot; style=&quot;rounded=1;arcSize=10;dashed=1;strokeColor=#F59D56;fillColor=none;gradientColor=none;dashPattern=8 4;strokeWidth=2;&quot; parent=&quot;1&quot; vertex=&quot;1&quot;&gt;&#10;          &lt;mxGeometry x=&quot;160&quot; y=&quot;160&quot; width=&quot;840&quot; height=&quot;530&quot; as=&quot;geometry&quot; /&gt;&#10;        &lt;/mxCell&gt;&#10;        &lt;mxCell id=&quot;Qo0mmyYZ15Q514RHZL_5-4&quot; value=&quot;Public subnet&quot; style=&quot;points=[[0,0],[0.25,0],[0.5,0],[0.75,0],[1,0],[1,0.25],[1,0.5],[1,0.75],[1,1],[0.75,1],[0.5,1],[0.25,1],[0,1],[0,0.75],[0,0.5],[0,0.25]];outlineConnect=0;gradientColor=none;html=1;whiteSpace=wrap;fontSize=12;fontStyle=0;container=1;pointerEvents=0;collapsible=0;recursiveResize=0;shape=mxgraph.aws4.group;grIcon=mxgraph.aws4.group_security_group;grStroke=0;strokeColor=#7AA116;fillColor=#F2F6E8;verticalAlign=top;align=left;spacingLeft=30;fontColor=#248814;dashed=0;&quot; parent=&quot;1&quot; vertex=&quot;1&quot;&gt;&#10;          &lt;mxGeometry x=&quot;280&quot; y=&quot;240&quot; width=&quot;600&quot; height=&quot;160&quot; as=&quot;geometry&quot; /&gt;&#10;        &lt;/mxCell&gt;&#10;        &lt;mxCell id=&quot;Qo0mmyYZ15Q514RHZL_5-10&quot; value=&quot;Public subnet - 10.0.25.0/24&quot; style=&quot;text;html=1;align=center;verticalAlign=middle;whiteSpace=wrap;rounded=0;fontColor=#1A1A1A;fontSize=20;&quot; parent=&quot;Qo0mmyYZ15Q514RHZL_5-4&quot; vertex=&quot;1&quot;&gt;&#10;          &lt;mxGeometry x=&quot;150&quot; y=&quot;55&quot; width=&quot;310&quot; height=&quot;30&quot; as=&quot;geometry&quot; /&gt;&#10;        &lt;/mxCell&gt;&#10;        &lt;mxCell id=&quot;Qo0mmyYZ15Q514RHZL_5-5&quot; value=&quot;Private subnet&quot; style=&quot;points=[[0,0],[0.25,0],[0.5,0],[0.75,0],[1,0],[1,0.25],[1,0.5],[1,0.75],[1,1],[0.75,1],[0.5,1],[0.25,1],[0,1],[0,0.75],[0,0.5],[0,0.25]];outlineConnect=0;gradientColor=none;html=1;whiteSpace=wrap;fontSize=12;fontStyle=0;container=1;pointerEvents=0;collapsible=0;recursiveResize=0;shape=mxgraph.aws4.group;grIcon=mxgraph.aws4.group_security_group;grStroke=0;strokeColor=#00A4A6;fillColor=#E6F6F7;verticalAlign=top;align=left;spacingLeft=30;fontColor=#147EBA;dashed=0;&quot; parent=&quot;1&quot; vertex=&quot;1&quot;&gt;&#10;          &lt;mxGeometry x=&quot;280&quot; y=&quot;480&quot; width=&quot;600&quot; height=&quot;160&quot; as=&quot;geometry&quot; /&gt;&#10;        &lt;/mxCell&gt;&#10;        &lt;mxCell id=&quot;Qo0mmyYZ15Q514RHZL_5-12&quot; value=&quot;Private subnet - 10.0.50.0/24&quot; style=&quot;text;html=1;align=center;verticalAlign=middle;whiteSpace=wrap;rounded=0;fontColor=#1A1A1A;fontSize=20;&quot; parent=&quot;Qo0mmyYZ15Q514RHZL_5-5&quot; vertex=&quot;1&quot;&gt;&#10;          &lt;mxGeometry x=&quot;145&quot; y=&quot;55&quot; width=&quot;310&quot; height=&quot;30&quot; as=&quot;geometry&quot; /&gt;&#10;        &lt;/mxCell&gt;&#10;        &lt;mxCell id=&quot;Qo0mmyYZ15Q514RHZL_5-6&quot; value=&quot;&quot; style=&quot;sketch=0;outlineConnect=0;fontColor=#232F3E;gradientColor=none;fillColor=#8C4FFF;strokeColor=none;dashed=0;verticalLabelPosition=bottom;verticalAlign=top;align=center;html=1;fontSize=12;fontStyle=0;aspect=fixed;pointerEvents=1;shape=mxgraph.aws4.nat_gateway;&quot; parent=&quot;1&quot; vertex=&quot;1&quot;&gt;&#10;          &lt;mxGeometry x=&quot;340&quot; y=&quot;400&quot; width=&quot;58&quot; height=&quot;58&quot; as=&quot;geometry&quot; /&gt;&#10;        &lt;/mxCell&gt;&#10;        &lt;mxCell id=&quot;Qo0mmyYZ15Q514RHZL_5-7&quot; value=&quot;&quot; style=&quot;sketch=0;points=[[0.5,0,0],[1,0.5,0],[0.5,1,0],[0,0.5,0],[0.145,0.145,0],[0.8555,0.145,0],[0.855,0.8555,0],[0.145,0.855,0]];verticalLabelPosition=bottom;html=1;verticalAlign=top;aspect=fixed;align=center;pointerEvents=1;shape=mxgraph.cisco19.lock;fillColor=#005073;strokeColor=none;&quot; parent=&quot;1&quot; vertex=&quot;1&quot;&gt;&#10;          &lt;mxGeometry x=&quot;230&quot; y=&quot;295&quot; width=&quot;50&quot; height=&quot;50&quot; as=&quot;geometry&quot; /&gt;&#10;        &lt;/mxCell&gt;&#10;        &lt;mxCell id=&quot;Qo0mmyYZ15Q514RHZL_5-8&quot; value=&quot;&quot; style=&quot;sketch=0;points=[[0.5,0,0],[1,0.5,0],[0.5,1,0],[0,0.5,0],[0.145,0.145,0],[0.8555,0.145,0],[0.855,0.8555,0],[0.145,0.855,0]];verticalLabelPosition=bottom;html=1;verticalAlign=top;aspect=fixed;align=center;pointerEvents=1;shape=mxgraph.cisco19.lock;fillColor=#005073;strokeColor=none;&quot; parent=&quot;1&quot; vertex=&quot;1&quot;&gt;&#10;          &lt;mxGeometry x=&quot;230&quot; y=&quot;535&quot; width=&quot;50&quot; height=&quot;50&quot; as=&quot;geometry&quot; /&gt;&#10;        &lt;/mxCell&gt;&#10;        &lt;mxCell id=&quot;Qo0mmyYZ15Q514RHZL_5-13&quot; value=&quot;Availability Zone&quot; style=&quot;text;html=1;align=center;verticalAlign=middle;whiteSpace=wrap;rounded=0;fontSize=20;fontColor=#FF8000;&quot; parent=&quot;1&quot; vertex=&quot;1&quot;&gt;&#10;          &lt;mxGeometry x=&quot;490&quot; y=&quot;650&quot; width=&quot;180&quot; height=&quot;30&quot; as=&quot;geometry&quot; /&gt;&#10;        &lt;/mxCell&gt;&#10;        &lt;mxCell id=&quot;Qo0mmyYZ15Q514RHZL_5-17&quot; value=&quot;My VPC&quot; style=&quot;text;html=1;align=center;verticalAlign=middle;whiteSpace=wrap;rounded=0;fontSize=20;&quot; parent=&quot;1&quot; vertex=&quot;1&quot;&gt;&#10;          &lt;mxGeometry x=&quot;110&quot; y=&quot;40&quot; width=&quot;90&quot; height=&quot;30&quot; as=&quot;geometry&quot; /&gt;&#10;        &lt;/mxCell&gt;&#10;        &lt;mxCell id=&quot;Qo0mmyYZ15Q514RHZL_5-19&quot; value=&quot;&amp;lt;div&amp;gt;Internet Gateway&amp;lt;/div&amp;gt;&amp;lt;div&amp;gt;&amp;lt;br&amp;gt;&amp;lt;/div&amp;gt;&quot; style=&quot;text;html=1;align=center;verticalAlign=middle;whiteSpace=wrap;rounded=0;fontSize=20;&quot; parent=&quot;1&quot; vertex=&quot;1&quot;&gt;&#10;          &lt;mxGeometry x=&quot;470&quot; y=&quot;20&quot; width=&quot;175&quot; height=&quot;30&quot; as=&quot;geometry&quot; /&gt;&#10;        &lt;/mxCell&gt;&#10;        &lt;mxCell id=&quot;Qo0mmyYZ15Q514RHZL_5-26&quot; value=&quot;&quot; style=&quot;html=1;labelBackgroundColor=#ffffff;endArrow=classic;endFill=1;endSize=6;jettySize=auto;orthogonalLoop=1;strokeWidth=1;fontSize=14;rounded=0;fontColor=#FF0000;strokeColor=#FF3333;curved=0;flowAnimation=1;&quot; parent=&quot;1&quot; source=&quot;Qo0mmyYZ15Q514RHZL_5-6&quot; target=&quot;Qo0mmyYZ15Q514RHZL_5-9&quot; edge=&quot;1&quot;&gt;&#10;          &lt;mxGeometry width=&quot;60&quot; height=&quot;60&quot; relative=&quot;1&quot; as=&quot;geometry&quot;&gt;&#10;            &lt;mxPoint x=&quot;580&quot; y=&quot;310&quot; as=&quot;sourcePoint&quot; /&gt;&#10;            &lt;mxPoint x=&quot;640&quot; y=&quot;250&quot; as=&quot;targetPoint&quot; /&gt;&#10;          &lt;/mxGeometry&gt;&#10;        &lt;/mxCell&gt;&#10;        &lt;mxCell id=&quot;Qo0mmyYZ15Q514RHZL_5-27&quot; value=&quot;&quot; style=&quot;html=1;labelBackgroundColor=#ffffff;endArrow=classic;endFill=1;endSize=6;jettySize=auto;orthogonalLoop=1;strokeWidth=1;fontSize=14;rounded=0;fontColor=#000000;strokeColor=#FF3333;flowAnimation=1;&quot; parent=&quot;1&quot; target=&quot;Qo0mmyYZ15Q514RHZL_5-6&quot; edge=&quot;1&quot;&gt;&#10;          &lt;mxGeometry width=&quot;60&quot; height=&quot;60&quot; relative=&quot;1&quot; as=&quot;geometry&quot;&gt;&#10;            &lt;mxPoint x=&quot;580&quot; y=&quot;535&quot; as=&quot;sourcePoint&quot; /&gt;&#10;            &lt;mxPoint x=&quot;640&quot; y=&quot;250&quot; as=&quot;targetPoint&quot; /&gt;&#10;          &lt;/mxGeometry&gt;&#10;        &lt;/mxCell&gt;&#10;      &lt;/root&gt;&#10;    &lt;/mxGraphModel&gt;&#10;  &lt;/diagram&gt;&#10;&lt;/mxfile&gt;&#10;"><defs><style>@keyframes ge-flow-animation-IsKC6BGaj9HByWqAnqpl {&#xa;  to {&#xa;    stroke-dashoffset: 0;&#xa;  }&#xa;}</style></defs><g><g data-cell-id="0"><g data-cell-id="1"><g data-cell-id="Qo0mmyYZ15Q514RHZL_5-1"><g><path d="M 10 69 L 930 69 L 930 749 L 10 749 Z" fill="none" stroke="#8c4fff" stroke-miterlimit="10" pointer-events="none" style="stroke: rgb(140, 79, 255);"/><path d="M 10 69 L 10 94 L 35 94 L 35 69 Z M 20.99 73.38 C 22.29 73.36 23.51 73.77 24.32 74.55 C 24.78 75 25.14 75.51 25.42 76.1 C 25.8 75.82 26.29 75.69 26.89 75.72 C 28 75.77 28.85 76.79 29.03 78.22 C 29.97 78.3 30.58 78.77 30.91 79.66 L 30.33 79.88 C 30.06 79.16 29.57 78.83 28.74 78.83 C 28.58 78.83 28.44 78.7 28.43 78.54 C 28.35 77.08 27.55 76.38 26.85 76.34 C 26.26 76.31 25.83 76.48 25.55 76.83 C 25.48 76.93 25.38 76.97 25.26 76.96 C 25.15 76.94 25.05 76.86 25.01 76.75 C 24.76 76.06 24.39 75.49 23.88 74.99 C 22.76 73.91 20.7 73.68 18.86 74.44 C 17.57 74.96 16.74 76.32 16.74 77.88 C 16.74 78.06 16.76 78.32 16.78 78.48 C 16.8 78.64 16.7 78.79 16.55 78.82 C 15.11 79.18 14.37 80.05 14.37 81.4 C 14.37 81.46 14.37 81.53 14.38 81.59 C 14.47 83.15 15.44 84.15 16.87 84.15 L 21.87 84.15 L 21.87 84.77 L 16.87 84.77 C 15.11 84.77 13.86 83.51 13.76 81.64 C 13.75 81.57 13.75 81.48 13.75 81.4 C 13.75 79.83 14.57 78.76 16.14 78.29 C 16.12 78.15 16.12 78 16.12 77.88 C 16.12 76.06 17.1 74.48 18.63 73.86 C 19.4 73.54 20.21 73.38 20.99 73.38 Z M 27.21 78.83 C 27.25 78.83 27.29 78.84 27.33 78.86 L 31.05 80.5 C 31.17 80.55 31.24 80.66 31.24 80.79 L 31.24 85.4 C 31.24 85.47 31.26 87.43 29.99 88.72 C 29.28 89.43 28.33 89.8 27.15 89.8 C 25.97 89.8 25.02 89.43 24.33 88.72 C 23.08 87.43 23.12 85.47 23.12 85.39 L 23.12 80.73 C 23.12 80.61 23.19 80.49 23.31 80.45 L 27.08 78.86 C 27.12 78.84 27.16 78.83 27.21 78.83 Z M 27.2 79.49 L 23.74 80.94 L 23.74 85.4 C 23.74 85.42 23.71 87.19 24.78 88.29 C 25.35 88.87 26.15 89.17 27.15 89.17 C 28.15 89.17 28.96 88.87 29.54 88.28 C 30.62 87.18 30.61 85.42 30.61 85.4 L 30.61 80.99 Z M 27.2 80.57 C 27.25 80.57 27.29 80.58 27.33 80.59 L 29.79 81.65 C 29.91 81.7 29.98 81.81 29.98 81.94 L 29.98 86.02 C 29.87 86.93 29.13 88.56 27.15 88.56 C 25.23 88.56 24.49 86.93 24.37 86.06 L 24.37 81.94 C 24.37 81.81 24.45 81.7 24.56 81.65 L 27.08 80.59 C 27.12 80.58 27.16 80.57 27.2 80.57 Z M 26.89 81.35 L 24.99 82.15 L 24.99 86.02 C 25 86.05 25.27 87.75 26.89 87.92 Z M 27.52 81.35 L 27.52 87.91 C 29.11 87.69 29.35 86.05 29.36 85.98 L 29.36 82.14 Z" fill="#8c4fff" stroke="none" pointer-events="all" style="fill: rgb(140, 79, 255);"/></g><g><g><switch><foreignObject style="overflow: visible; text-align: left;" pointer-events="none" width="100%" height="100%" requiredFeatures="http://www.w3.org/TR/SVG11/feature#Extensibility"><div xmlns="http://www.w3.org/1999/xhtml" style="display: flex; align-items: unsafe flex-start; justify-content: unsafe flex-start; width: 888px; height: 1px; padding-top: 76px; margin-left: 42px;"><div style="box-sizing: border-box; font-size: 0; text-align: left; color: #AAB7B8; "><div style="display: inline-block; font-size: 12px; font-family: Helvetica; color: #AAB7B8; line-height: 1.2; pointer-events: all; white-space: normal; word-wrap: normal; ">VPC</div></div></div></foreignObject><text x="42" y="88" fill="#AAB7B8" font-family="Helvetica" font-size="12px">VPC</text></switch></g></g><g data-cell-id="Qo0mmyYZ15Q514RHZL_5-9"><g><path d="M 454.39 111 C 434.84 111 420.02 94.9 420.02 77.1 L 420 72.96 C 420 55.43 434.68 39 454.45 39 C 474.69 39 489 55.49 489 73.21 L 489 77.17 C 489 94.22 474.69 111 454.39 111 Z" fill="#f58536" stroke="none" pointer-events="all" style="fill: rgb(245, 133, 54);"/><path d="M 420 72.96 C 420 95.45 438.26 108.05 453.8 108.05 C 475.68 108.05 489 90.83 489 73.21 L 489 77.17 C 489 94.16 474.67 111 454.39 111 C 434.84 111 420.02 94.87 420.02 77.1 Z" fill-opacity="0.3" fill="#000000" stroke="none" pointer-events="all" style="fill: rgb(0, 0, 0);"/><rect x="420" y="39" width="0" height="0" fill="none" stroke="#000000" pointer-events="all" style="stroke: light-dark(rgb(0, 0, 0), rgb(255, 255, 255));"/><path d="M 469.39 82.94 C 473.66 82.85 476.68 79.91 476.97 77.08 C 477.39 74.01 474.49 69.78 470.24 69.33 L 468.24 69.19 L 468.12 67.04 C 468 65.76 467.18 64.01 465.27 63.41 C 462.78 62.7 461.73 63.82 459.49 65.35 L 458.31 62.89 C 457.04 60.17 453.85 56.94 448.83 56.82 C 442.68 56.85 438.38 61.97 438.38 67.29 L 438.4 69.22 L 436.66 69.71 C 434.75 70.34 431.95 73.11 432.03 76.7 C 432.09 80.43 436.19 82.94 439.64 82.94 Z M 439.78 86.58 C 434.19 86.58 428.88 82.75 428.52 77.49 C 427.94 71.92 432.32 67.66 434.86 66.6 C 435.19 61.06 438.37 57.26 441.61 55.31 C 445.95 52.72 450.94 52.78 454.98 54.75 C 457.03 55.69 459.27 57.5 460.87 60.23 C 462.84 59.29 465.82 59.18 468.36 60.94 C 470.15 62.23 471.18 64.01 471.52 65.92 C 476.55 66.83 481.45 72.1 480.36 78.29 C 479.71 82.52 474.72 86.58 469.34 86.58 Z" fill="#ffffff" stroke="none" pointer-events="all" style="fill: rgb(255, 255, 255);"/></g></g><g data-cell-id="Qo0mmyYZ15Q514RHZL_5-15"><g><rect x="380" y="699" width="190" height="30" fill="none" stroke="none" pointer-events="all"/></g><g><g><switch><foreignObject style="overflow: visible; text-align: left;" pointer-events="none" width="100%" height="100%" requiredFeatures="http://www.w3.org/TR/SVG11/feature#Extensibility"><div xmlns="http://www.w3.org/1999/xhtml" style="display: flex; align-items: unsafe center; justify-content: unsafe center; width: 188px; height: 1px; padding-top: 714px; margin-left: 381px;"><div style="box-sizing: border-box; font-size: 0; text-align: center; color: #000000; "><div style="display: inline-block; font-size: 20px; font-family: Helvetica; color: light-dark(#000000, #ffffff); line-height: 1.2; pointer-events: all; white-space: normal; word-wrap: normal; ">VPC 10.0.0.0/16</div></div></div></foreignObject><text x="475" y="720" fill="light-dark(#000000, #ffffff)" font-family="Helvetica" font-size="20px" text-anchor="middle">VPC 10.0.0.0/16</text></switch></g></g></g></g><g data-cell-id="Qo0mmyYZ15Q514RHZL_5-3"><g><rect x="50" y="149" width="840" height="530" rx="53" ry="53" fill="none" stroke="#f59d56" stroke-width="2" stroke-dasharray="16 8" pointer-events="all" style="stroke: rgb(245, 157, 86);"/></g></g><g data-cell-id="Qo0mmyYZ15Q514RHZL_5-4"><g><path d="M 170 229 L 770 229 L 770 389 L 170 389 Z" fill="#f2f6e8" stroke="none" pointer-events="none" style="fill: rgb(242, 246, 232);"/><path d="M 170 229 L 195 229 L 195 254 L 170 254 Z M 182.52 232.21 C 181.4 232.21 180.31 232.63 179.49 233.39 C 178.67 234.11 178.2 235.15 178.2 236.24 L 178.2 238.78 L 175.89 238.78 C 175.8 238.78 175.7 238.82 175.64 238.89 C 175.57 238.95 175.54 239.04 175.54 239.13 L 175.54 250.43 C 175.54 250.63 175.7 250.79 175.89 250.79 L 189.11 250.79 C 189.3 250.79 189.46 250.63 189.46 250.43 L 189.46 239.15 C 189.47 239.06 189.43 238.97 189.36 238.9 C 189.3 238.83 189.21 238.79 189.11 238.79 L 186.81 238.79 L 186.81 236.29 C 186.8 235.21 186.35 234.18 185.56 233.44 C 184.74 232.65 183.65 232.22 182.52 232.21 Z M 182.51 232.93 C 183.46 232.92 184.37 233.28 185.06 233.93 C 185.72 234.54 186.1 235.4 186.1 236.29 L 186.1 238.79 L 178.88 238.79 L 178.89 236.26 C 178.9 235.36 179.28 234.51 179.95 233.91 C 180.65 233.27 181.57 232.92 182.51 232.93 Z M 176.24 239.5 L 188.76 239.5 L 188.75 250.07 L 176.24 250.07 Z M 182.51 241.74 C 181.48 241.73 180.61 242.51 180.51 243.53 C 180.42 244.56 181.13 245.48 182.14 245.66 L 182.14 248.44 L 182.86 248.44 L 182.86 245.66 C 183.79 245.49 184.47 244.67 184.48 243.72 C 184.48 242.63 183.6 241.75 182.51 241.74 Z M 182.39 242.45 C 182.43 242.45 182.47 242.45 182.51 242.46 C 182.84 242.46 183.16 242.59 183.4 242.83 C 183.64 243.07 183.77 243.39 183.76 243.72 C 183.77 244.06 183.64 244.38 183.4 244.61 C 183.16 244.85 182.84 244.98 182.51 244.98 C 182.04 245.02 181.6 244.8 181.34 244.42 C 181.08 244.03 181.06 243.53 181.28 243.12 C 181.5 242.71 181.93 242.46 182.39 242.45 Z" fill="#7aa116" stroke="none" pointer-events="all" style="fill: rgb(122, 161, 22);"/></g><g><g><switch><foreignObject style="overflow: visible; text-align: left;" pointer-events="none" width="100%" height="100%" requiredFeatures="http://www.w3.org/TR/SVG11/feature#Extensibility"><div xmlns="http://www.w3.org/1999/xhtml" style="display: flex; align-items: unsafe flex-start; justify-content: unsafe flex-start; width: 568px; height: 1px; padding-top: 236px; margin-left: 202px;"><div style="box-sizing: border-box; font-size: 0; text-align: left; color: #248814; "><div style="display: inline-block; font-size: 12px; font-family: Helvetica; color: #248814; line-height: 1.2; pointer-events: all; white-space: normal; word-wrap: normal; ">Public subnet</div></div></div></foreignObject><text x="202" y="248" fill="#248814" font-family="Helvetica" font-size="12px">Public subnet</text></switch></g></g><g data-cell-id="Qo0mmyYZ15Q514RHZL_5-10"><g><rect x="320" y="284" width="310" height="30" fill="none" stroke="none" pointer-events="all"/></g><g><g><switch><foreignObject style="overflow: visible; text-align: left;" pointer-events="none" width="100%" height="100%" requiredFeatures="http://www.w3.org/TR/SVG11/feature#Extensibility"><div xmlns="http://www.w3.org/1999/xhtml" style="display: flex; align-items: unsafe center; justify-content: unsafe center; width: 308px; height: 1px; padding-top: 299px; margin-left: 321px;"><div style="box-sizing: border-box; font-size: 0; text-align: center; color: #1A1A1A; "><div style="display: inline-block; font-size: 20px; font-family: Helvetica; color: #1A1A1A; line-height: 1.2; pointer-events: all; white-space: normal; word-wrap: normal; ">Public subnet - 10.0.25.0/24</div></div></div></foreignObject><text x="475" y="305" fill="#1A1A1A" font-family="Helvetica" font-size="20px" text-anchor="middle">Public subnet - 10.0.25.0/24</text></switch></g></g></g></g><g data-cell-id="Qo0mmyYZ15Q514RHZL_5-5"><g><path d="M 170 469 L 770 469 L 770 629 L 170 629 Z" fill="#e6f6f7" stroke="none" pointer-events="none" style="fill: rgb(230, 246, 247);"/><path d="M 170 469 L 195 469 L 195 494 L 170 494 Z M 182.52 472.21 C 181.4 472.21 180.31 472.63 179.49 473.39 C 178.67 474.11 178.2 475.15 178.2 476.24 L 178.2 478.78 L 175.89 478.78 C 175.8 478.78 175.7 478.82 175.64 478.89 C 175.57 478.95 175.54 479.04 175.54 479.13 L 175.54 490.43 C 175.54 490.63 175.7 490.79 175.89 490.79 L 189.11 490.79 C 189.3 490.79 189.46 490.63 189.46 490.43 L 189.46 479.15 C 189.47 479.06 189.43 478.97 189.36 478.9 C 189.3 478.83 189.21 478.79 189.11 478.79 L 186.81 478.79 L 186.81 476.29 C 186.8 475.21 186.35 474.18 185.56 473.44 C 184.74 472.65 183.65 472.22 182.52 472.21 Z M 182.51 472.93 C 183.46 472.92 184.37 473.28 185.06 473.93 C 185.72 474.54 186.1 475.4 186.1 476.29 L 186.1 478.79 L 178.88 478.79 L 178.89 476.26 C 178.9 475.36 179.28 474.51 179.95 473.91 C 180.65 473.27 181.57 472.92 182.51 472.93 Z M 176.24 479.5 L 188.76 479.5 L 188.75 490.07 L 176.24 490.07 Z M 182.51 481.74 C 181.48 481.73 180.61 482.51 180.51 483.53 C 180.42 484.56 181.13 485.48 182.14 485.66 L 182.14 488.44 L 182.86 488.44 L 182.86 485.66 C 183.79 485.49 184.47 484.67 184.48 483.72 C 184.48 482.63 183.6 481.75 182.51 481.74 Z M 182.39 482.45 C 182.43 482.45 182.47 482.45 182.51 482.46 C 182.84 482.46 183.16 482.59 183.4 482.83 C 183.64 483.07 183.77 483.39 183.76 483.72 C 183.77 484.06 183.64 484.38 183.4 484.61 C 183.16 484.85 182.84 484.98 182.51 484.98 C 182.04 485.02 181.6 484.8 181.34 484.42 C 181.08 484.03 181.06 483.53 181.28 483.12 C 181.5 482.71 181.93 482.46 182.39 482.45 Z" fill="#00a4a6" stroke="none" pointer-events="all" style="fill: rgb(0, 164, 166);"/></g><g><g><switch><foreignObject style="overflow: visible; text-align: left;" pointer-events="none" width="100%" height="100%" requiredFeatures="http://www.w3.org/TR/SVG11/feature#Extensibility"><div xmlns="http://www.w3.org/1999/xhtml" style="display: flex; align-items: unsafe flex-start; justify-content: unsafe flex-start; width: 568px; height: 1px; padding-top: 476px; margin-left: 202px;"><div style="box-sizing: border-box; font-size: 0; text-align: left; color: #147EBA; "><div style="display: inline-block; font-size: 12px; font-family: Helvetica; color: #147EBA; line-height: 1.2; pointer-events: all; white-space: normal; word-wrap: normal; ">Private subnet</div></div></div></foreignObject><text x="202" y="488" fill="#147EBA" font-family="Helvetica" font-size="12px">Private subnet</text></switch></g></g><g data-cell-id="Qo0mmyYZ15Q514RHZL_5-12"><g><rect x="315" y="524" width="310" height="30" fill="none" stroke="none" pointer-events="all"/></g><g><g><switch><foreignObject style="overflow: visible; text-align: left;" pointer-events="none" width="100%" height="100%" requiredFeatures="http://www.w3.org/TR/SVG11/feature#Extensibility"><div xmlns="http://www.w3.org/1999/xhtml" style="display: flex; align-items: unsafe center; justify-content: unsafe center; width: 308px; height: 1px; padding-top: 539px; margin-left: 316px;"><div style="box-sizing: border-box; font-size: 0; text-align: center; color: #1A1A1A; "><div style="display: inline-block; font-size: 20px; font-family: Helvetica; color: #1A1A1A; line-height: 1.2; pointer-events: all; white-space: normal; word-wrap: normal; ">Private subnet - 10.0.50.0/24</div></div></div></foreignObject><text x="470" y="545" fill="#1A1A1A" font-family="Helvetica" font-size="20px" text-anchor="middle">Private subnet - 10.0.50.0/24</text></switch></g></g></g></g><g data-cell-id="Qo0mmyYZ15Q514RHZL_5-6"><g><rect x="230" y="389" width="58" height="58" fill="none" stroke="none" pointer-events="all"/><path d="M 245.32 433.71 L 245.32 429.97 L 247.66 431.84 Z M 244.83 426.2 C 244.43 425.88 243.89 425.82 243.43 426.04 C 242.98 426.26 242.69 426.72 242.69 427.23 L 242.69 436.45 C 242.69 436.96 242.98 437.42 243.43 437.64 C 243.62 437.73 243.81 437.77 244.01 437.77 C 244.3 437.77 244.59 437.67 244.83 437.48 L 250.6 432.87 C 250.91 432.62 251.09 432.24 251.09 431.84 C 251.09 431.44 250.91 431.06 250.6 430.81 Z M 276.47 421.74 L 276.47 416.57 L 279.05 419.15 Z M 281.85 418.22 L 276.08 412.45 C 275.7 412.08 275.14 411.96 274.64 412.17 C 274.15 412.37 273.83 412.85 273.83 413.39 L 273.83 417.83 L 263.78 417.83 L 263.78 405.31 C 263.78 404.58 263.19 403.99 262.46 403.99 L 252.32 403.99 L 252.32 406.63 L 261.14 406.63 L 261.14 417.83 L 252.08 417.83 L 252.08 420.47 L 261.14 420.47 L 261.14 431.68 L 252.32 431.68 L 252.32 434.31 L 262.46 434.31 C 263.19 434.31 263.78 433.72 263.78 432.99 L 263.78 420.47 L 273.83 420.47 L 273.83 424.92 C 273.83 425.45 274.15 425.94 274.64 426.14 C 274.81 426.21 274.98 426.24 275.15 426.24 C 275.49 426.24 275.83 426.1 276.08 425.85 L 281.85 420.08 C 282.36 419.57 282.36 418.74 281.85 418.22 Z M 245.32 421.02 L 245.32 417.28 L 247.66 419.15 Z M 244.83 413.51 C 244.43 413.19 243.89 413.13 243.43 413.35 C 242.98 413.57 242.69 414.03 242.69 414.54 L 242.69 423.77 C 242.69 424.27 242.98 424.73 243.43 424.95 C 243.62 425.04 243.81 425.09 244.01 425.09 C 244.3 425.09 244.59 424.99 244.83 424.8 L 250.6 420.18 C 250.91 419.93 251.09 419.55 251.09 419.15 C 251.09 418.75 250.91 418.37 250.6 418.12 Z M 245.32 407.18 L 245.32 403.44 L 247.66 405.31 Z M 244.83 399.67 C 244.43 399.35 243.89 399.29 243.43 399.51 C 242.98 399.73 242.69 400.19 242.69 400.7 L 242.69 409.93 C 242.69 410.43 242.98 410.89 243.43 411.11 C 243.62 411.2 243.81 411.24 244.01 411.24 C 244.3 411.24 244.59 411.15 244.83 410.96 L 250.6 406.34 C 250.91 406.09 251.09 405.71 251.09 405.31 C 251.09 404.91 250.91 404.53 250.6 404.28 Z M 259 444.36 C 244.46 444.36 232.64 432.54 232.64 418 C 232.64 403.46 244.46 391.64 259 391.64 C 273.54 391.64 285.36 403.46 285.36 418 C 285.36 432.54 273.54 444.36 259 444.36 Z M 259 389 C 243.01 389 230 402.01 230 418 C 230 433.99 243.01 447 259 447 C 274.99 447 288 433.99 288 418 C 288 402.01 274.99 389 259 389 Z" fill="#8c4fff" stroke="none" pointer-events="all" style="fill: rgb(140, 79, 255);"/></g></g><g data-cell-id="Qo0mmyYZ15Q514RHZL_5-7"><g><rect x="120" y="284" width="50" height="50" fill="none" stroke="none" pointer-events="all"/><path d="M 145.27 310.53 C 145.7 310.53 146.11 310.7 146.41 311 C 146.72 311.31 146.89 311.72 146.89 312.15 C 146.89 312.86 146.42 313.49 145.74 313.69 L 145.74 317.43 L 144.8 317.43 L 144.8 313.69 C 144.12 313.49 143.65 312.86 143.65 312.15 C 143.65 311.72 143.82 311.31 144.12 311 C 144.43 310.7 144.84 310.53 145.27 310.53 Z M 145.24 292.57 C 142.89 292.57 140.95 293.74 139.63 295.21 C 138.31 296.68 137.55 298.45 137.55 300.01 L 137.55 305.72 L 132.68 305.72 L 132.68 321.83 L 157.67 321.83 L 157.67 305.72 L 152.94 305.72 L 152.94 300.01 C 152.94 296.2 149.39 292.57 145.24 292.57 Z M 145.24 294.37 C 148.27 294.37 151.14 297.4 151.14 300.01 L 151.14 305.72 L 139.34 305.72 L 139.34 300.01 C 139.34 299.09 139.92 297.58 140.97 296.4 C 142.02 295.23 143.47 294.37 145.24 294.37 Z M 145 284 C 131.21 284 120 295.21 120 309 C 120 322.79 131.21 334 145 334 C 158.79 334 170 322.79 170 309 C 170 295.21 158.79 284 145 284 Z M 145 286.82 C 157.27 286.82 167.18 296.73 167.18 309 C 167.18 321.27 157.27 331.18 145 331.18 C 132.73 331.18 122.82 321.27 122.82 309 C 122.82 296.73 132.73 286.82 145 286.82 Z" fill="#005073" stroke="none" pointer-events="all" style="fill: rgb(0, 80, 115);"/></g></g><g data-cell-id="Qo0mmyYZ15Q514RHZL_5-8"><g><rect x="120" y="524" width="50" height="50" fill="none" stroke="none" pointer-events="all"/><path d="M 145.27 550.53 C 145.7 550.53 146.11 550.7 146.41 551 C 146.72 551.31 146.89 551.72 146.89 552.15 C 146.89 552.86 146.42 553.49 145.74 553.69 L 145.74 557.43 L 144.8 557.43 L 144.8 553.69 C 144.12 553.49 143.65 552.86 143.65 552.15 C 143.65 551.72 143.82 551.31 144.12 551 C 144.43 550.7 144.84 550.53 145.27 550.53 Z M 145.24 532.57 C 142.89 532.57 140.95 533.74 139.63 535.21 C 138.31 536.68 137.55 538.45 137.55 540.01 L 137.55 545.72 L 132.68 545.72 L 132.68 561.83 L 157.67 561.83 L 157.67 545.72 L 152.94 545.72 L 152.94 540.01 C 152.94 536.2 149.39 532.57 145.24 532.57 Z M 145.24 534.37 C 148.27 534.37 151.14 537.4 151.14 540.01 L 151.14 545.72 L 139.34 545.72 L 139.34 540.01 C 139.34 539.09 139.92 537.58 140.97 536.4 C 142.02 535.23 143.47 534.37 145.24 534.37 Z M 145 524 C 131.21 524 120 535.21 120 549 C 120 562.79 131.21 574 145 574 C 158.79 574 170 562.79 170 549 C 170 535.21 158.79 524 145 524 Z M 145 526.82 C 157.27 526.82 167.18 536.73 167.18 549 C 167.18 561.27 157.27 571.18 145 571.18 C 132.73 571.18 122.82 561.27 122.82 549 C 122.82 536.73 132.73 526.82 145 526.82 Z" fill="#005073" stroke="none" pointer-events="all" style="fill: rgb(0, 80, 115);"/></g></g><g data-cell-id="Qo0mmyYZ15Q514RHZL_5-13"><g><rect x="380" y="639" width="180" height="30" fill="none" stroke="none" pointer-events="all"/></g><g><g><switch><foreignObject style="overflow: visible; text-align: left;" pointer-events="none" width="100%" height="100%" requiredFeatures="http://www.w3.org/TR/SVG11/feature#Extensibility"><div xmlns="http://www.w3.org/1999/xhtml" style="display: flex; align-items: unsafe center; justify-content: unsafe center; width: 178px; height: 1px; padding-top: 654px; margin-left: 381px;"><div style="box-sizing: border-box; font-size: 0; text-align: center; color: #FF8000; "><div style="display: inline-block; font-size: 20px; font-family: Helvetica; color: #FF8000; line-height: 1.2; pointer-events: all; white-space: normal; word-wrap: normal; ">Availability Zone</div></div></div></foreignObject><text x="470" y="660" fill="#FF8000" font-family="Helvetica" font-size="20px" text-anchor="middle">Availability Zone</text></switch></g></g></g><g data-cell-id="Qo0mmyYZ15Q514RHZL_5-17"><g><rect x="0" y="29" width="90" height="30" fill="none" stroke="none" pointer-events="all"/></g><g><g><switch><foreignObject style="overflow: visible; text-align: left;" pointer-events="none" width="100%" height="100%" requiredFeatures="http://www.w3.org/TR/SVG11/feature#Extensibility"><div xmlns="http://www.w3.org/1999/xhtml" style="display: flex; align-items: unsafe center; justify-content: unsafe center; width: 88px; height: 1px; padding-top: 44px; margin-left: 1px;"><div style="box-sizing: border-box; font-size: 0; text-align: center; color: #000000; "><div style="display: inline-block; font-size: 20px; font-family: Helvetica; color: light-dark(#000000, #ffffff); line-height: 1.2; pointer-events: all; white-space: normal; word-wrap: normal; ">My VPC</div></div></div></foreignObject><text x="45" y="50" fill="light-dark(#000000, #ffffff)" font-family="Helvetica" font-size="20px" text-anchor="middle">My VPC</text></switch></g></g></g><g data-cell-id="Qo0mmyYZ15Q514RHZL_5-19"><g><rect x="360" y="9" width="175" height="30" fill="none" stroke="none" pointer-events="all"/></g><g><g><switch><foreignObject style="overflow: visible; text-align: left;" pointer-events="none" width="100%" height="100%" requiredFeatures="http://www.w3.org/TR/SVG11/feature#Extensibility"><div xmlns="http://www.w3.org/1999/xhtml" style="display: flex; align-items: unsafe center; justify-content: unsafe center; width: 173px; height: 1px; padding-top: 24px; margin-left: 361px;"><div style="box-sizing: border-box; font-size: 0; text-align: center; color: #000000; "><div style="display: inline-block; font-size: 20px; font-family: Helvetica; color: light-dark(#000000, #ffffff); line-height: 1.2; pointer-events: all; white-space: normal; word-wrap: normal; "><div>Internet Gateway</div><div><br /></div></div></div></div></foreignObject><text x="448" y="30" fill="light-dark(#000000, #ffffff)" font-family="Helvetica" font-size="20px" text-anchor="middle">Internet Gateway&#xa;</text></switch></g></g></g><g data-cell-id="Qo0mmyYZ15Q514RHZL_5-26"><g><path d="M 275.53 389 L 430.83 116.53" fill="none" stroke="#ff3333" stroke-miterlimit="10" pointer-events="stroke" stroke-dasharray="8" style="stroke: rgb(255, 51, 51); animation: 500ms linear 0s infinite normal none running ge-flow-animation-IsKC6BGaj9HByWqAnqpl; stroke-dashoffset: 16;"/><path d="M 433.43 111.97 L 433 119.79 L 430.83 116.53 L 426.92 116.32 Z" fill="#ff3333" stroke="#ff3333" stroke-miterlimit="10" pointer-events="all" style="fill: rgb(255, 51, 51); stroke: rgb(255, 51, 51);"/></g></g><g data-cell-id="Qo0mmyYZ15Q514RHZL_5-27"><g><path d="M 470 524 L 293.69 435.43" fill="none" stroke="#ff3333" stroke-miterlimit="10" pointer-events="stroke" stroke-dasharray="8" style="stroke: rgb(255, 51, 51); animation: 500ms linear 0s infinite normal none running ge-flow-animation-IsKC6BGaj9HByWqAnqpl; stroke-dashoffset: 16;"/><path d="M 289 433.07 L 296.83 433.09 L 293.69 435.43 L 293.68 439.34 Z" fill="#ff3333" stroke="#ff3333" stroke-miterlimit="10" pointer-events="all" style="fill: rgb(255, 51, 51); stroke: rgb(255, 51, 51);"/></g></g></g></g></g></svg>